<mxfile host="app.diagrams.net" modified="2023-12-19T15:16:19.398Z" agent="Mozilla/5.0 (Windows NT 10.0; Win64; x64) AppleWebKit/537.36 (KHTML, like Gecko) Chrome/120.0.0.0 Safari/537.36 Edg/120.0.0.0" etag="IjEX-f-RVxmKe7o1PdDh" version="22.1.11" type="github">
  <diagram name="第 1 页" id="-jKrakLZdPmx5niNtz63">
    <mxGraphModel dx="2462" dy="1424" grid="0" gridSize="10" guides="1" tooltips="1" connect="1" arrows="1" fold="1" page="0" pageScale="1" pageWidth="827" pageHeight="1169" math="0" shadow="0">
      <root>
        <mxCell id="0" />
        <mxCell id="1" parent="0" />
        <mxCell id="I4LTgjotlInHx3if6aNa-10" value="" style="edgeStyle=orthogonalEdgeStyle;rounded=1;orthogonalLoop=1;jettySize=auto;html=1;fillColor=none;shadow=1;strokeWidth=2;fontSize=15;labelBackgroundColor=none;fontColor=default;fontFamily=Comic Sans MS;sketch=1;curveFitting=1;jiggle=2;" parent="1" source="I4LTgjotlInHx3if6aNa-1" target="I4LTgjotlInHx3if6aNa-9" edge="1">
          <mxGeometry relative="1" as="geometry" />
        </mxCell>
        <mxCell id="I4LTgjotlInHx3if6aNa-1" value="protobuf&amp;nbsp;" style="rounded=1;whiteSpace=wrap;html=1;fillColor=none;shadow=1;strokeWidth=2;fontSize=15;labelBackgroundColor=none;fontFamily=Comic Sans MS;sketch=1;curveFitting=1;jiggle=2;" parent="1" vertex="1">
          <mxGeometry x="-430" width="120" height="60" as="geometry" />
        </mxCell>
        <mxCell id="I4LTgjotlInHx3if6aNa-6" value="" style="edgeStyle=orthogonalEdgeStyle;rounded=1;orthogonalLoop=1;jettySize=auto;html=1;fillColor=none;shadow=1;strokeWidth=2;fontSize=15;labelBackgroundColor=none;fontColor=default;fontFamily=Comic Sans MS;sketch=1;curveFitting=1;jiggle=2;" parent="1" edge="1">
          <mxGeometry relative="1" as="geometry">
            <mxPoint x="130.99999999999977" y="24" as="sourcePoint" />
            <mxPoint x="192" y="24" as="targetPoint" />
          </mxGeometry>
        </mxCell>
        <mxCell id="I4LTgjotlInHx3if6aNa-2" value="service" style="rounded=1;whiteSpace=wrap;html=1;fillColor=none;shadow=1;strokeWidth=2;fontSize=15;labelBackgroundColor=none;fontFamily=Comic Sans MS;sketch=1;curveFitting=1;jiggle=2;" parent="1" vertex="1">
          <mxGeometry x="10" width="120" height="60" as="geometry" />
        </mxCell>
        <mxCell id="I4LTgjotlInHx3if6aNa-8" value="" style="edgeStyle=orthogonalEdgeStyle;rounded=1;orthogonalLoop=1;jettySize=auto;html=1;fillColor=none;shadow=1;strokeWidth=2;fontSize=15;labelBackgroundColor=none;fontColor=default;fontFamily=Comic Sans MS;sketch=1;curveFitting=1;jiggle=2;" parent="1" source="I4LTgjotlInHx3if6aNa-5" target="I4LTgjotlInHx3if6aNa-7" edge="1">
          <mxGeometry relative="1" as="geometry" />
        </mxCell>
        <mxCell id="I4LTgjotlInHx3if6aNa-5" value="biz" style="rounded=1;whiteSpace=wrap;html=1;fillColor=none;shadow=1;strokeWidth=2;fontSize=15;labelBackgroundColor=none;fontFamily=Comic Sans MS;sketch=1;curveFitting=1;jiggle=2;" parent="1" vertex="1">
          <mxGeometry x="190" width="120" height="60" as="geometry" />
        </mxCell>
        <mxCell id="I4LTgjotlInHx3if6aNa-7" value="data" style="rounded=1;whiteSpace=wrap;html=1;fillColor=none;shadow=1;strokeWidth=2;fontSize=15;labelBackgroundColor=none;fontFamily=Comic Sans MS;sketch=1;curveFitting=1;jiggle=2;" parent="1" vertex="1">
          <mxGeometry x="390" width="120" height="60" as="geometry" />
        </mxCell>
        <mxCell id="I4LTgjotlInHx3if6aNa-11" value="" style="edgeStyle=orthogonalEdgeStyle;rounded=1;orthogonalLoop=1;jettySize=auto;html=1;fillColor=none;shadow=1;strokeWidth=2;fontSize=15;labelBackgroundColor=none;fontColor=default;fontFamily=Comic Sans MS;sketch=1;curveFitting=1;jiggle=2;" parent="1" source="I4LTgjotlInHx3if6aNa-9" target="I4LTgjotlInHx3if6aNa-2" edge="1">
          <mxGeometry relative="1" as="geometry" />
        </mxCell>
        <mxCell id="I4LTgjotlInHx3if6aNa-9" value="server" style="rounded=1;whiteSpace=wrap;html=1;fillColor=none;shadow=1;strokeWidth=2;fontSize=15;labelBackgroundColor=none;fontFamily=Comic Sans MS;sketch=1;curveFitting=1;jiggle=2;" parent="1" vertex="1">
          <mxGeometry x="-190" width="120" height="60" as="geometry" />
        </mxCell>
        <mxCell id="I4LTgjotlInHx3if6aNa-12" value="" style="endArrow=classic;rounded=1;entryX=0.565;entryY=1.015;entryDx=0;entryDy=0;entryPerimeter=0;labelBackgroundColor=none;fontColor=default;verticalAlign=bottom;horizontal=0;labelBorderColor=none;html=1;fontFamily=Comic Sans MS;shadow=1;fontSize=15;sketch=1;curveFitting=1;jiggle=2;" parent="1" target="I4LTgjotlInHx3if6aNa-7" edge="1">
          <mxGeometry width="50" height="50" relative="1" as="geometry">
            <mxPoint x="463" y="155" as="sourcePoint" />
            <mxPoint x="155" y="23" as="targetPoint" />
          </mxGeometry>
        </mxCell>
        <mxCell id="I4LTgjotlInHx3if6aNa-17" value="" style="edgeStyle=orthogonalEdgeStyle;rounded=0;orthogonalLoop=1;jettySize=auto;html=1;fontColor=default;startArrow=classic;startFill=1;fontFamily=Comic Sans MS;shadow=1;fontSize=15;sketch=1;curveFitting=1;jiggle=2;labelBackgroundColor=none;" parent="1" source="I4LTgjotlInHx3if6aNa-15" target="I4LTgjotlInHx3if6aNa-16" edge="1">
          <mxGeometry relative="1" as="geometry" />
        </mxCell>
        <mxCell id="I4LTgjotlInHx3if6aNa-15" value="GEN框架" style="rounded=1;whiteSpace=wrap;html=1;fillColor=none;shadow=1;strokeWidth=2;fontSize=15;labelBackgroundColor=none;fontFamily=Comic Sans MS;sketch=1;curveFitting=1;jiggle=2;" parent="1" vertex="1">
          <mxGeometry x="410" y="160" width="120" height="60" as="geometry" />
        </mxCell>
        <mxCell id="I4LTgjotlInHx3if6aNa-16" value="MySQL数据库" style="rounded=1;whiteSpace=wrap;html=1;fillColor=none;shadow=1;strokeWidth=2;fontSize=15;labelBackgroundColor=none;fontFamily=Comic Sans MS;sketch=1;curveFitting=1;jiggle=2;" parent="1" vertex="1">
          <mxGeometry x="410" y="300" width="120" height="60" as="geometry" />
        </mxCell>
        <mxCell id="I4LTgjotlInHx3if6aNa-20" value="参数校验&lt;br style=&quot;font-size: 15px;&quot;&gt;业务逻辑处理&lt;br style=&quot;font-size: 15px;&quot;&gt;调用data层" style="text;html=1;fillColor=none;align=center;verticalAlign=middle;whiteSpace=wrap;rounded=0;fontFamily=Comic Sans MS;shadow=1;fontSize=15;sketch=1;curveFitting=1;jiggle=2;labelBackgroundColor=none;" parent="1" vertex="1">
          <mxGeometry x="210" y="-60" width="100" height="50" as="geometry" />
        </mxCell>
        <mxCell id="I4LTgjotlInHx3if6aNa-21" value="&lt;div style=&quot;font-size: 14px;&quot;&gt;&lt;span style=&quot;background-color: initial;&quot;&gt;&lt;font style=&quot;font-size: 14px;&quot;&gt;接受RPC的数据流&lt;/font&gt;&lt;/span&gt;&lt;/div&gt;&lt;div style=&quot;font-size: 14px;&quot;&gt;&lt;span style=&quot;background-color: initial;&quot;&gt;&lt;font style=&quot;font-size: 14px;&quot;&gt;转为系统可识别的字段&lt;/font&gt;&lt;/span&gt;&lt;/div&gt;&lt;div style=&quot;font-size: 14px;&quot;&gt;&lt;span style=&quot;background-color: initial;&quot;&gt;&lt;font style=&quot;font-size: 14px;&quot;&gt;调用uc的方法&lt;/font&gt;&lt;/span&gt;&lt;/div&gt;&lt;div style=&quot;font-size: 14px;&quot;&gt;&lt;span style=&quot;background-color: initial;&quot;&gt;&lt;font style=&quot;font-size: 14px;&quot;&gt;进入biz层&lt;/font&gt;&lt;/span&gt;&lt;/div&gt;" style="text;html=1;fillColor=none;align=center;verticalAlign=middle;whiteSpace=wrap;rounded=0;fontFamily=Comic Sans MS;shadow=1;fontSize=15;sketch=1;curveFitting=1;jiggle=2;labelBackgroundColor=none;" parent="1" vertex="1">
          <mxGeometry y="-80" width="150" height="60" as="geometry" />
        </mxCell>
        <mxCell id="Cx5WN4cpBMy6bfxERYib-6" style="edgeStyle=none;curved=1;rounded=0;orthogonalLoop=1;jettySize=auto;html=1;endArrow=open;startSize=14;endSize=14;sourcePerimeterSpacing=8;targetPerimeterSpacing=8;sketch=1;curveFitting=1;jiggle=2;labelBackgroundColor=none;fontColor=default;" parent="1" source="Cx5WN4cpBMy6bfxERYib-4" edge="1">
          <mxGeometry relative="1" as="geometry">
            <mxPoint x="-438" y="25" as="targetPoint" />
          </mxGeometry>
        </mxCell>
        <mxCell id="Cx5WN4cpBMy6bfxERYib-4" value="validate" style="rounded=1;whiteSpace=wrap;html=1;fillColor=none;shadow=1;strokeWidth=2;fontSize=15;labelBackgroundColor=none;fontFamily=Comic Sans MS;sketch=1;curveFitting=1;jiggle=2;" parent="1" vertex="1">
          <mxGeometry x="-620" y="-106" width="110" height="50" as="geometry" />
        </mxCell>
        <mxCell id="Cx5WN4cpBMy6bfxERYib-7" style="edgeStyle=none;curved=1;rounded=0;orthogonalLoop=1;jettySize=auto;html=1;entryX=0;entryY=0.5;entryDx=0;entryDy=0;endArrow=open;startSize=14;endSize=14;sourcePerimeterSpacing=8;targetPerimeterSpacing=8;sketch=1;curveFitting=1;jiggle=2;labelBackgroundColor=none;fontColor=default;" parent="1" source="Cx5WN4cpBMy6bfxERYib-5" target="I4LTgjotlInHx3if6aNa-1" edge="1">
          <mxGeometry relative="1" as="geometry" />
        </mxCell>
        <mxCell id="Cx5WN4cpBMy6bfxERYib-5" value="error" style="rounded=1;whiteSpace=wrap;html=1;fillColor=none;shadow=1;strokeWidth=2;fontSize=15;labelBackgroundColor=none;fontFamily=Comic Sans MS;sketch=1;curveFitting=1;jiggle=2;" parent="1" vertex="1">
          <mxGeometry x="-673" y="33" width="120" height="60" as="geometry" />
        </mxCell>
        <mxCell id="shKCEn_Xyt3LaVv7UZW--4" style="edgeStyle=none;curved=1;rounded=0;orthogonalLoop=1;jettySize=auto;html=1;entryX=0.5;entryY=1;entryDx=0;entryDy=0;endArrow=open;startSize=14;endSize=14;sourcePerimeterSpacing=8;targetPerimeterSpacing=8;sketch=1;curveFitting=1;jiggle=2;" edge="1" parent="1" source="shKCEn_Xyt3LaVv7UZW--1" target="I4LTgjotlInHx3if6aNa-1">
          <mxGeometry relative="1" as="geometry" />
        </mxCell>
        <mxCell id="shKCEn_Xyt3LaVv7UZW--1" value="gRPC" style="rounded=1;whiteSpace=wrap;html=1;fillColor=none;shadow=1;strokeWidth=2;fontSize=15;labelBackgroundColor=none;fontFamily=Comic Sans MS;sketch=1;curveFitting=1;jiggle=2;" vertex="1" parent="1">
          <mxGeometry x="-516" y="116" width="120" height="60" as="geometry" />
        </mxCell>
        <mxCell id="shKCEn_Xyt3LaVv7UZW--3" style="edgeStyle=none;curved=1;rounded=0;orthogonalLoop=1;jettySize=auto;html=1;endArrow=open;startSize=14;endSize=14;sourcePerimeterSpacing=8;targetPerimeterSpacing=8;sketch=1;curveFitting=1;jiggle=2;" edge="1" parent="1" source="shKCEn_Xyt3LaVv7UZW--2" target="I4LTgjotlInHx3if6aNa-1">
          <mxGeometry relative="1" as="geometry" />
        </mxCell>
        <mxCell id="shKCEn_Xyt3LaVv7UZW--2" value="Http" style="rounded=1;whiteSpace=wrap;html=1;fillColor=none;shadow=1;strokeWidth=2;fontSize=15;labelBackgroundColor=none;fontFamily=Comic Sans MS;sketch=1;curveFitting=1;jiggle=2;" vertex="1" parent="1">
          <mxGeometry x="-469" y="-154" width="120" height="60" as="geometry" />
        </mxCell>
      </root>
    </mxGraphModel>
  </diagram>
</mxfile>
